<?xml version="1.0" encoding="utf-8"?>
<svg viewBox="0 0 57 50" xmlns="http://www.w3.org/2000/svg">
  <path d="M 22.456 18.363 C 22.172 18.427 21.927 18.629 21.723 18.966 C 17.027 26.741 12.264 34.588 7.434 42.509 C 7.229 42.838 7.446 43.271 7.827 43.291 C 7.833 43.291 7.841 43.291 7.848 43.291 L 11.463 43.318 C 11.908 43.318 12.108 43.547 12.064 44.004 C 11.65 48.518 4.473 47.008 1.324 47.022 C 0.924 47.035 0.661 46.597 0.851 46.235 C 0.857 46.222 0.864 46.211 0.871 46.199 L 21.789 11.489 C 22.084 10.997 22.784 11.004 23.07 11.503 L 24.751 14.453 C 25 14.892 25.613 14.898 25.872 14.466 L 27.633 11.462 C 27.913 10.976 28.596 10.968 28.887 11.448 C 33.182 18.482 37.411 25.524 41.574 32.576 C 41.911 33.134 42.338 33.436 42.855 33.481 C 43.495 33.528 43.646 33.271 43.308 32.713 L 29.02 8.965 C 28.731 8.494 28.065 8.487 27.766 8.951 L 25.965 11.805 C 25.723 12.186 25.199 12.233 24.898 11.901 L 23.497 10.392 C 23.15 10.018 23.09 9.455 23.35 9.02 L 27.819 1.46 C 28.075 1.041 28.67 1.041 28.927 1.46 L 49.965 36.403 C 50.16 36.74 49.929 37.166 49.55 37.173 C 49.541 37.173 49.533 37.173 49.525 37.172 L 45.336 36.98 C 44.894 36.962 44.6 37.442 44.805 37.844 C 44.813 37.859 44.821 37.873 44.829 37.885 L 46.937 41.26 C 47.142 41.602 46.912 42.043 46.521 42.056 C 46.518 42.056 46.514 42.056 46.51 42.056 L 20.015 42.028 C 19.668 42.028 19.405 42.179 19.228 42.481 C 19.138 42.628 19.121 42.783 19.174 42.948 C 19.272 43.232 19.468 43.373 19.761 43.373 L 48.511 43.373 C 49.045 43.37 49.38 42.784 49.115 42.319 C 49.11 42.308 49.103 42.299 49.098 42.289 L 47.31 39.408 C 46.622 38.21 47.653 37.011 49.166 37.25 C 49.753 37.343 50.296 37.646 50.646 38.077 C 52.584 40.593 54.328 43.323 55.875 46.268 C 56.159 46.808 56.005 47.077 55.408 47.077 L 13.118 47.118 C 12.46 47.118 12.295 46.826 12.624 46.24 L 14.532 42.92 C 14.768 42.5 14.473 41.974 14.001 41.974 C 14 41.974 13.998 41.974 13.998 41.974 L 10.463 42.042 C 9.989 42.056 9.686 41.528 9.916 41.093 C 9.92 41.084 9.925 41.076 9.929 41.068 L 23.057 19.213 C 23.285 18.848 23.031 18.368 22.6 18.35 C 22.551 18.349 22.503 18.353 22.456 18.363 Z M 28.815 18.61 C 28.637 18.313 28.258 18.221 27.97 18.405 L 27.925 18.434 C 27.637 18.616 27.547 19.006 27.725 19.302 L 36.109 33.263 C 36.287 33.559 36.666 33.651 36.954 33.468 L 36.999 33.439 C 37.287 33.256 37.377 32.867 37.199 32.57 L 28.815 18.61 Z M 25.796 24.219 C 25.948 23.968 25.873 23.638 25.629 23.483 L 25.583 23.452 C 25.339 23.297 25.018 23.374 24.867 23.624 L 16.449 37.531 C 16.297 37.782 16.372 38.113 16.616 38.268 L 16.661 38.297 C 16.905 38.453 17.225 38.376 17.377 38.125 L 25.796 24.219 Z M 28.606 28.227 C 28.396 27.869 27.887 27.877 27.686 28.24 L 25.271 32.644 C 25.082 33.004 25.327 33.443 25.725 33.454 L 30.848 33.536 C 31.259 33.547 31.525 33.096 31.329 32.725 C 31.324 32.717 31.32 32.707 31.315 32.699 L 28.606 28.227 Z M 40.32 37.701 C 40.318 37.415 40.09 37.181 39.811 37.183 L 22.495 37.244 C 22.215 37.246 21.988 37.48 21.989 37.767 L 21.989 37.822 C 21.991 38.11 22.218 38.343 22.498 38.342 L 39.814 38.28 C 40.094 38.279 40.321 38.044 40.32 37.756 L 40.32 37.701 Z" style=""/>
</svg>